<svg xmlns="http://www.w3.org/2000/svg" width="890.707" height="245.269" viewBox="0 0 890.707 245.269">
  <g id="mirage-logo-purple-200" transform="translate(-0.001 -5)">
    <path id="Path_1" data-name="Path 1" d="M195.667,5a47,47,0,0,1,15.762,91.124l37.526,67.526h25.689a7.216,7.216,0,0,1,0,14.432H244.876q-.11,0-.219,0H7.159a7.216,7.216,0,0,1,.006-14.432H32.854L99.677,43.843a7.145,7.145,0,0,1,12.238-.407l38.391,59.31,11.941-18.131A47.019,47.019,0,0,1,195.674,5ZM158.819,115.907l30.9,47.744h42.819L184.411,77.044l-25.592,38.862Zm13.813,47.744L106.364,61.283,49.274,163.65H172.625ZM228.8,51.943a33.382,33.382,0,0,1-24.062,32.143l-13.561-24.4a7.145,7.145,0,0,0-12.212-.465l-9.049,13.748A33.251,33.251,0,1,1,228.8,51.943Z" transform="translate(0 0)" fill="#fde68a" fill-rule="evenodd"/>
    <path id="Path_2" data-name="Path 2" d="M15.658,35.173a7.207,7.207,0,0,0,0,14.413H173.276a7.207,7.207,0,0,0,.006-14.413ZM70.6,71.253a7.22,7.22,0,0,0,0,14.439h47.737a7.22,7.22,0,0,0-.006-14.439H70.6Z" transform="translate(46.428 164.577)" fill="#fde68a"/>
    <path id="Path_3" data-name="Path 3" d="M263.55,32.36c-6.338-8.068-15.833-12.412-28.057-12.412-19.26,0-39.043,16.317-39.043,43.8s19.783,43.8,39.043,43.8c12.225,0,21.719-4.26,28.057-12.412v6.829c0,15.781-9.5,25.36-26.734,25.36-10.288,0-20.054-3.376-28.58-8.6l-6.687,15.7c8.881,6.383,22.687,9.843,35.267,9.843,28.141,0,45.2-16.4,45.2-43.1v-79H263.55v10.2Zm-48.2,31.388c0-14.361,9.32-26.334,24.882-26.334,14.865,0,24.895,11.444,24.895,26.334S255.1,90.082,240.236,90.082C224.675,90.082,215.354,78.032,215.354,63.748Zm-53.049-31.3c-5.8-7.539-14.51-12.5-26.47-12.5-23.559,0-42.122,18.7-42.122,44.684s18.557,44.691,42.122,44.691c11.967,0,20.667-4.873,26.47-12.412v10.2h18.382V22.168H162.305ZM112.619,64.632c0-14.89,9.591-27.218,25.418-27.218,15.213,0,25.418,11.7,25.418,27.218s-10.2,27.225-25.418,27.225c-15.826,0-25.418-12.328-25.418-27.225Zm266.936-.084c-.084-26.508-16.265-44.6-39.837-44.6-24.8,0-41.947,18.092-41.947,44.691,0,26.954,17.853,44.691,43.09,44.691,12.754,0,24.359-3.1,34.647-11.967l-9.146-13.219A40.075,40.075,0,0,1,342,93.1c-11.96,0-22.6-6.39-25.063-21.642h62.266c.174-2.124.349-4.518.349-6.913Zm-62.524-7.184c1.936-12.412,9.23-20.925,22.332-20.925,11.7,0,19.35,7.713,21.371,20.925h-43.7Z" transform="translate(511.152 81.533)" fill="#fde68a" fill-rule="evenodd"/>
    <path id="Path_4" data-name="Path 4" d="M120.372,105.661,84.576,16.99H54.059V141.128h19.88V39.955L109.9,128.981h20.932l35.971-90V141.128h19.88V16.99H156.155l-35.79,88.671Zm108.893,35.467V56.188H210.8v84.94Zm78.628-84.766a36.512,36.512,0,0,0-14.161-2.388c-10.288,0-18.911,3.718-24.449,11.786V56.175h-18.2v84.94h18.382V94.385c0-14.445,8.352-22.784,20.048-22.784a32.561,32.561,0,0,1,13.98,3.1l4.4-18.35ZM232.957,26.833a12.932,12.932,0,0,0-13.019-13.122,12.791,12.791,0,0,0-12.844,13.122,12.644,12.644,0,0,0,12.844,12.948,12.785,12.785,0,0,0,13.019-12.948Z" transform="translate(294.856 47.514)" fill="#fde68a"/>
  </g>
</svg>
