<svg xmlns="http://www.w3.org/2000/svg" width="651.802" height="172.075" viewBox="0 0 651.802 172.075">
  <g id="transistor-logo-purple-200" transform="translate(0 -3)">
    <path id="Path_1" data-name="Path 1" d="M206.772,43.8V33.523h45.2V43.8H235.158v57.239H223.467V43.8Zm74.66,18.882a31.065,31.065,0,0,0-5.487-.479c-7.512,0-11.922,4.9-11.922,14.818v23.9h-11.1V53.6H263.78v6.691h.239a15.345,15.345,0,0,1,13.242-8.251,37.382,37.382,0,0,1,4.171.243v10.4Zm53.076,38.237H323.774V94.945h-.239a19.888,19.888,0,0,1-16.221,7.768c-10.614,0-22.66-8.486-22.66-25.453,0-15.057,10.614-25.094,23.494-25.094a18.916,18.916,0,0,1,15.507,7.883h.239V53.6h10.734v47.321H334.5Zm-24.331-8c7.273,0,14.071-6.336,14.071-15.42,0-9.558-6.2-15.891-13.952-15.891-9.781,0-14.434,7.888-14.434,15.656,0,7.883,4.534,15.651,14.315,15.651ZM347.391,53.6h10.973v5.978h.235a17.086,17.086,0,0,1,14.43-7.529c9.781,0,18.37,6.452,18.37,21.629v27.243H380.3V74.269c0-8.127-3.812-12.425-10.136-12.425-6.918,0-11.687,4.9-11.687,14.1v25.094H347.387V53.6Zm77.523,12.19a6.333,6.333,0,0,0-6.324-5.734c-3.816,0-5.961,2.389-5.961,5.016,0,2.867,1.431,4.9,9.657,7.648C432.426,75.944,436,81.2,436,87.895c0,8.721-6.559,14.818-17.413,14.818-11.328,0-16.934-6.217-17.772-15.057h10.26c.474,3.944,2.863,6.931,7.751,6.931,4.175,0,6.559-2.628,6.559-5.858,0-3.581-2.026-5.854-9.9-8.482-8.828-2.867-13.362-7.289-13.362-14.7,0-7.768,6.085-13.5,16.1-13.5,10.14,0,15.507,5.973,16.7,13.737H424.914Zm20.75-33.939h12.285V43.081H445.664Zm.6,21.749h11.089v47.441H446.262V53.6Zm45.321,12.19a6.333,6.333,0,0,0-6.324-5.734c-3.816,0-5.961,2.389-5.961,5.016,0,2.867,1.431,4.9,9.661,7.648,10.136,3.226,13.712,8.486,13.712,15.177,0,8.721-6.559,14.818-17.413,14.818-11.328,0-16.934-6.217-17.768-15.057h10.255c.479,3.944,2.863,6.931,7.751,6.931,4.175,0,6.559-2.628,6.559-5.858,0-3.581-2.025-5.854-9.9-8.482-8.828-2.867-13.358-7.289-13.358-14.7,0-7.768,6.081-13.5,16.1-13.5,10.136,0,15.5,5.973,16.7,13.737H491.583ZM507.445,53.6h5.961V38.424H524.5V53.6h11.807V62.92H524.379V84.07c0,6.452,2.03,8.246,6.559,8.246a22.053,22.053,0,0,0,5.726-.837v8.96a31.952,31.952,0,0,1-8.35,1.077c-11.807,0-14.909-7.17-14.909-16.848V62.92h-5.961V53.6Zm59.037-1.551c14.789,0,25.284,10.874,25.284,25.214,0,13.981-10.614,25.453-25.284,25.453-14.43,0-25.284-11.114-25.284-25.453C541.2,62.561,552.171,52.046,566.482,52.046Zm0,40.746c8.35,0,14.071-6.691,14.071-15.532,0-8.366-5.367-15.416-14.071-15.416-8.469,0-14.076,6.572-14.076,15.416C552.406,86.339,558.85,92.791,566.482,92.791ZM624.451,62.2c-7.516,0-11.926,4.9-11.926,14.818v23.9H601.432V53.6h10.854v6.691h.239a15.338,15.338,0,0,1,13.238-8.251,37.528,37.528,0,0,1,4.175.243v10.4a31.087,31.087,0,0,0-5.487-.479ZM64.008,124.461a5.734,5.734,0,0,1-5.726-5.734V15.714a5.724,5.724,0,1,1,11.448,0V118.723a5.808,5.808,0,0,1-5.722,5.734Zm-23.857-51.5H12.718A5.734,5.734,0,0,1,7,67.227a5.657,5.657,0,0,1,5.726-5.738H40.155a5.734,5.734,0,1,1,0,11.468Zm75.258,0H87.86a5.734,5.734,0,0,1-5.726-5.734,5.657,5.657,0,0,1,5.726-5.738h27.433a5.734,5.734,0,0,1,5.722,5.734,5.63,5.63,0,0,1-5.606,5.734Z" transform="translate(21.865 21.815)" fill="#fde68a"/>
    <path id="Path_2" data-name="Path 2" d="M85.872,175.075a86.037,86.037,0,1,1,85.872-86.037A86.052,86.052,0,0,1,85.872,175.075Zm0-160.6a74.565,74.565,0,1,0,74.42,74.565,74.587,74.587,0,0,0-74.42-74.565Z" transform="translate(0 0)" fill="#fde68a"/>
  </g>
</svg>
