<svg xmlns="http://www.w3.org/2000/svg" width="660.5" height="245.844" viewBox="0 0 660.5 245.844">
  <g id="tuple-logo-purple-200" transform="translate(0 -4)">
    <path id="Path_1" data-name="Path 1" d="M113.466,4,0,41.822V164.744l37.822,12.607v34.67l113.466,37.822V51.278L113.466,63.885ZM50.429,181.556l63.037,21.01V77.173l25.215-8.4V232.351L50.429,202.944V181.562Z" fill="#fde68a" fill-rule="evenodd"/>
    <path id="Path_2" data-name="Path 2" d="M61.516,38.44v66.5H89.542V38.44h22.252V17.058H39.39V38.446H61.516Zm64.329,30.245c0,25.076,14.5,37.86,40.192,37.86,24.584,0,40.318-11.681,40.318-38.106V17.058H178.33v50.4c0,11.555-2.458,17.209-12.292,17.209-9.96,0-12.418-5.654-12.418-17.083V17.058H125.845V68.685Z" transform="translate(208.912 69.256)" fill="#fde68a"/>
    <path id="Path_3" data-name="Path 3" d="M68.965,104.944V17.058H104c25.322,0,36.139,11.309,36.139,30.113v.492c0,18.319-12.166,28.644-34.91,28.644H96.745v28.638ZM102.52,57.622H96.745V37.829h5.9c7.249,0,11.063,2.711,11.063,9.468v.492c0,6.512-3.814,9.834-11.189,9.834Z" transform="translate(365.769 69.256)" fill="#fde68a" fill-rule="evenodd"/>
    <path id="Path_4" data-name="Path 4" d="M82.563,104.944V17.058h27.906V83.436h31.96v21.508ZM158.2,17.058v87.886h64.411V83.556H185.981V70.406h27.534V50.865H185.981V38.446h34.664V17.058H158.2Z" transform="translate(437.888 69.256)" fill="#fde68a"/>
  </g>
</svg>
