<svg xmlns="http://www.w3.org/2000/svg" width="745.374" height="121.79" viewBox="0 0 745.374 121.79">
  <g id="workcation-logo-purple-200" transform="translate(0 -8.999)">
    <path id="Path_1" data-name="Path 1" d="M175.337,56.418,143.882,38.259v84.356h36.772v8.174H.87v-8.174H17.214V70.646l-15.23,3.81L0,66.522,86.174,44.976H98.928a39.008,39.008,0,0,0-2.774,10.456L94.178,71.673l21.1-12.183v63.121h20.427V38.259L104.261,56.418a30.651,30.651,0,0,1,10.481-19.612H97.913A30.6,30.6,0,0,1,125.065,24.66L102.22,11.467A30.675,30.675,0,0,1,139.8,22.7a30.667,30.667,0,0,1,37.579-11.234L154.524,24.66a30.6,30.6,0,0,1,27.156,12.145H164.852a30.639,30.639,0,0,1,10.489,19.607Zm-76.4,66.2V81.756H74.421v40.859ZM53.99,89.926a8.172,8.172,0,1,1-8.172-8.172A8.172,8.172,0,0,1,53.99,89.926Z" transform="translate(0 0)" fill="#fde68a" fill-rule="evenodd"/>
    <path id="Path_2" data-name="Path 2" d="M73.844,87.713h15.4L102.086,42.4,115.03,87.7h15.4l19.222-68.641h-14.22L122.289,69.956,107.875,19.064H96.3L81.985,69.956,68.842,19.064H54.626L73.844,87.7Z" transform="translate(171.578 31.614)" fill="#fde68a"/>
    <path id="Path_3" data-name="Path 3" d="M103.188,75.248A25.889,25.889,0,1,0,77.3,49.358,25.7,25.7,0,0,0,103.188,75.248Zm0-12.357c-7.454,0-13.239-5.59-13.239-13.533s5.785-13.533,13.239-13.533c7.553,0,13.338,5.59,13.338,13.533s-5.785,13.533-13.334,13.533Z" transform="translate(242.794 45.45)" fill="#fde68a" fill-rule="evenodd"/>
    <path id="Path_4" data-name="Path 4" d="M104.622,40.086v8.435c2.555-6.667,8.729-9.412,14.907-9.412V53.229c-6.568-.787-14.907,2.157-14.907,12.456V89.123H91.976V40.086h12.651Zm67.514,49.037-20.3-24.813,19.711-24.225h-15.1L139.581,61.66V20.474H126.93V89.123h12.651V66.861l17.848,22.262ZM342.351,26.462a7.8,7.8,0,1,1-7.847-7.847,7.933,7.933,0,0,1,7.847,7.843Zm-1.47,62.661H328.231V40.086h12.651V89.115Zm-21.57-36.871V40.086H308.23V26.359l-12.651,3.822v9.905h-8.53V52.248h8.53V72.642c0,13.239,5.98,18.436,23.732,16.477V77.644c-7.259.393-11.081.294-11.081-5V52.248h11.081Zm-95.358,25.5A25.112,25.112,0,0,1,201.79,90.494c-14.907,0-25.889-11.276-25.889-25.889s10.982-25.889,25.889-25.889a24.685,24.685,0,0,1,21.968,12.651l-10.887,6.377a12.126,12.126,0,0,0-11.181-6.572c-7.549,0-13.139,5.59-13.139,13.433,0,7.748,5.59,13.338,13.139,13.338,5.1,0,9.317-2.451,11.28-6.472l10.982,6.278Z" transform="translate(288.894 30.204)" fill="#fde68a"/>
    <path id="Path_5" data-name="Path 5" d="M164.477,30.629V24.844h12.651V73.873H164.477V68.092c-3.532,4.41-8.829,7.156-15.984,7.156-13.044,0-23.831-11.276-23.831-25.889s10.787-25.889,23.831-25.889c7.156,0,12.452,2.745,15.984,7.164Zm-27.165,18.73c0,8.241,5.785,13.831,13.533,13.831,7.847,0,13.632-5.59,13.632-13.831s-5.785-13.827-13.632-13.827c-7.748,0-13.533,5.59-13.533,13.831Zm135.82,25.889a25.889,25.889,0,1,0-25.889-25.889A25.7,25.7,0,0,0,273.132,75.248Zm0-12.357c-7.454,0-13.239-5.59-13.239-13.533s5.785-13.533,13.239-13.533c7.549,0,13.334,5.59,13.334,13.533S280.681,62.891,273.132,62.891Z" transform="translate(391.559 45.45)" fill="#fde68a" fill-rule="evenodd"/>
    <path id="Path_6" data-name="Path 6" d="M181.591,30.335c2.944-4.414,8.042-6.866,14.613-6.866,10.394,0,18.535,7.259,18.535,20.3v30.1H202.088V45.342c0-6.667-4.021-10.1-9.711-10.1-6.178,0-10.787,3.627-10.787,12.162V73.877H168.94V24.84h12.651v5.491Z" transform="translate(530.635 45.45)" fill="#fde68a"/>
  </g>
</svg>
