<svg xmlns="http://www.w3.org/2000/svg" width="376.854" height="342.601" viewBox="0 0 376.854 342.601">
  <g id="workflow-mark-indigo-600" transform="translate(-1.001 -1)">
    <path id="Path_1" data-name="Path 1" d="M98.79,296.379A45.856,45.856,0,0,1,53.053,343.6a46.391,46.391,0,0,1-39.376-69.845,45.08,45.08,0,0,1,16.787-16.365c-.274,1.245,1.028-.628,0,0l21.241-18.866a97.013,97.013,0,0,0,26.312-66.156c0-33.415-19.54-67.39-47.622-85.159,1.073.628-.411-1.073,0,0A45.328,45.328,0,0,1,7.259,48.233,45.857,45.857,0,0,1,52.984,1,45.856,45.856,0,0,1,98.722,48.222a97.31,97.31,0,0,0,26.8,66.6l9.33,9.136a132.626,132.626,0,0,0,11.694,9.113,44.526,44.526,0,0,1,0,78.49c.377-.765-.719.411,0,0A102.756,102.756,0,0,0,98.79,296.379Zm51.2-248.294a45.982,45.982,0,0,0,28.253,42.471,45.566,45.566,0,0,0,49.86-9.97,46.063,46.063,0,0,0-6.932-70.713A45.612,45.612,0,0,0,163.4,15.595,46.114,46.114,0,0,0,149.986,48.085Zm45.76,202.329a45.758,45.758,0,0,0-42.277,28.367,46.16,46.16,0,0,0,9.924,50.1,45.631,45.631,0,0,0,70.4-6.978,45.975,45.975,0,0,0-38.052-71.512Zm117.078-78.182a45.979,45.979,0,0,0-28.242-42.471,45.566,45.566,0,0,0-49.871,9.97,46.073,46.073,0,0,0,6.932,70.724,45.571,45.571,0,0,0,57.763-5.733,46.137,46.137,0,0,0,13.419-32.5Z" transform="translate(65.03 0)" fill="#0d9488"/>
    <path id="Path_2" data-name="Path 2" d="M46.754,11.969A45.745,45.745,0,0,0,4.477,40.348,46.16,46.16,0,0,0,14.4,90.436,45.843,45.843,0,1,0,46.754,11.969Z" transform="translate(0 114.297)" fill="#0d9488"/>
  </g>
</svg>
