<?xml version="1.0" encoding="utf-8"?>
<!-- Generator: Adobe Illustrator 25.1.0, SVG Export Plug-In . SVG Version: 6.00 Build 0)  -->
<svg version="1.1" id="Layer_1" xmlns="http://www.w3.org/2000/svg" xmlns:xlink="http://www.w3.org/1999/xlink" x="0px" y="0px"
	 viewBox="0 0 1920 646.8" style="enable-background:new 0 0 1920 646.8;" xml:space="preserve">
<style type="text/css">
	.st0{fill:none;}
	.st1{fill:#9CA3AF;}
</style>
<g>
	<path class="st0" d="M537.8,237c-27,0-41.9,23.4-41.9,61.2c0,39.7,14.2,62.8,42.2,62.8c27.4,0,40.6-22.4,40.6-64.5
		C578.7,259.1,564.5,237,537.8,237z M156.8,292.5l79,117.9V187.9C235.7,187.9,156.8,292.5,156.8,292.5z M331,242.7h-25.6v46.8h26.9
		c19.5,0.3,27.7-7,27.7-23C360,250.4,350.8,242.7,331,242.7C331,242.7,331,242.7,331,242.7z"/>
	<path class="st1" d="M730.8,188h-69.5v222.4h164.4v-58.1h-94.9V188z"/>
	<path class="st1" d="M998.3,326.1c-1.6-48.5-36.7-81.3-87-81.3c-52.1,0-88.1,35.1-88.1,85.5c0,50.5,35.6,85.2,87.4,85.2
		c51.1,0,87.2-34.7,87.7-84.8c0-1.3-0.1-2.6-0.1-3.9L998.3,326.1z M910.7,371.9c-17.5,0-25.8-14.6-25.8-41.7c0-27,8-41.3,25.2-41.3
		c18.2,0,28.7,14.5,28.7,41.2C938.8,358.2,928.5,371.9,910.7,371.9z"/>
	<path class="st1" d="M1109.7,268.5c-11.2-17.4-22.3-24.1-43.4-24.1c-41.1,0-67.7,34.9-67.9,81.6c0,1.2,0.2,2.3,0.2,3.5
		c0,0.3,0,0.7,0,1c1.4,45.3,26.5,72.2,67.8,72.2c19.8,0,31.9-5.7,44.1-20v17.5c0,22.4-6,30.5-24.3,30.5c-18.1,0-21.5-6.7-24.9-20.5
		h-57.3c5,40.7,21.4,54.2,81.8,54.2c37.6,0,60.2-9.7,73.7-31.1c7.6-11.7,10.2-23.1,10.2-43.8V249.1h-59.9L1109.7,268.5L1109.7,268.5
		C1109.7,268.5,1109.7,268.5,1109.7,268.5z M1085.1,360.6c-18.5,0-26.8-11.9-26.8-34.3c0-19.7,9.6-36.4,26.8-36.4
		c17.2,0,26.5,17.6,26.5,38.9C1111.6,348.9,1102.2,360.6,1085.1,360.6z M1245.2,352.1l-0.1-0.7h0.1V249.1H1183v161.3h62.2V352.1
		C1245.2,352.1,1245.2,352.1,1245.2,352.1z M1468.6,187.8l-62.8,61.3l0.3,107.9c0,18.4,1.3,24.4,5.9,33.1
		c8.6,16,25.9,22.4,56.9,22.4c10.6,0,28.5-0.7,43.7-2V367H1492c-20.5,0-22.9-2.7-23.4-22.1v-49.4h44v-46.4h-44L1468.6,187.8
		L1468.6,187.8L1468.6,187.8z M1526.2,249.1h62.2v161.3h-62.2V249.1z M1676.2,370.2c-17.6,0-26.3-13.9-26.3-38.6
		c0-27.7,9.1-43,26.6-43c12.2,0,20.6,8.8,22.3,21.9h58.9c-2.7-38.8-35.6-65.1-81.5-65.1c-52.7,0-87.7,34.4-87.7,85.9
		c0,49.8,35.4,83.2,87.1,83.2c46.9,0,77.9-19.6,83.5-63h-59C1697.4,367.8,1685.7,370.2,1676.2,370.2L1676.2,370.2z"/>
	<path class="st1" d="M1857.3,306.5c-31.3-5.7-34.7-7.7-34.7-15.4c0-6.7,5.1-10.6,16.6-10.6c13.9,0,18.3,3.5,20.6,14.9h55.9
		c-3.3-35.8-27-51.1-78.2-51.1c-48.5,0-75.2,18.4-75.2,51.1c0,16,7.2,29.4,20.1,37.1c9.9,6,18.5,8.7,46.5,14.7
		c29.4,6.3,30.8,9.4,30.8,16.3c0,8-8.2,13-19.2,13c-21,0-21.9-11.3-23.2-25.2H1759c3,39.3,21.6,63,80.8,63
		c50.5,0,80.2-20.7,80.2-56.5c0-7.5-1.6-14.9-4.6-21.7C1908.5,321.6,1891.6,312.9,1857.3,306.5L1857.3,306.5z M1325.9,414.4
		c50.5,0,80.1-20.7,80.1-56.5c0-7.7-1.6-15-4.6-21.7c-6.9-14.7-23.8-23.4-58.1-29.7c-31.3-5.7-34.7-7.7-34.7-15.4
		c0-6.7,5-10.6,16.6-10.6c13.9,0,18.3,4.1,20.6,14.9h55.9c-3.3-35.2-27-51.1-78.2-51.1c-48.5,0-75.3,18.4-75.3,51.1
		c0,16,7.3,29.4,20.2,37.1c9.9,6,18.5,8.7,46.5,14.7c29.4,6.3,30.8,9.4,30.8,16.3c0,8-8.2,13-19.3,13c-21,0-21.9-11.8-23.2-25.2
		h-58.2v0.7C1248.4,390.4,1267.1,414.4,1325.9,414.4L1325.9,414.4z"/>
	<path class="st1" d="M235.7,187.9h-80c0,0-32.6,53.8-36.3,62.1c-4.9-11.4-40.7-62.1-40.7-62.1H0l79.9,104.6L0.1,410.4h80.6
		L99,375.3c6.5-10.6,12.3-21.7,17.5-33.1c5,12.3,8.6,19.4,16.2,32.1l21.4,36.1h81.6l-79-117.9L235.7,187.9z M395.8,201.6
		c-15.2-10.3-31.7-13.7-67.6-13.7h-92.4v222.5h69.6v-68.5h39.2c29,0,47.2-6.3,61.4-20.4c14.2-14.4,21.8-33.1,21.8-54.8
		C427.8,238.7,416.2,215.3,395.8,201.6z M332.3,289.5h-26.9v-46.8H331c19.8,0,29,7.7,29,23.7C360,282.5,351.8,289.8,332.3,289.5z"/>
	<path class="st1" d="M538.8,182.3c-68.3,0-113.1,46.4-113.1,116.9c0,70.5,45.2,116.6,112.5,116.6c66,0,110.5-46.4,110.5-116.2
		C648.6,229.7,604.4,182.3,538.8,182.3z M538.1,361c-28,0-42.2-23.1-42.2-62.8c0-37.7,14.9-61.1,41.9-61.1
		c26.7,0,40.9,22.1,40.9,59.5C578.7,338.6,565.5,361,538.1,361z"/>
</g>
</svg>
